<svg xmlns="http://www.w3.org/2000/svg" xmlns:xlink="http://www.w3.org/1999/xlink" width="534" height="130" viewBox="0 0 534 130">
  <defs>
    <linearGradient id="beanify-a" x1="102%" x2="0%" y1="101%" y2="0%">
      <stop offset="0%" stop-color="#3023AE"/>
      <stop offset="100%" stop-color="#C86DD7"/>
    </linearGradient>
    <path id="beanify-b" d="M81.1363636,0 C67.9779545,0 57.2727273,10.7052273 57.2727273,23.8636364 C57.2727273,42.2863636 42.2863636,57.2727273 23.8636364,57.2727273 C10.7052273,57.2727273 0,67.9779545 0,81.1363636 C0,94.2947727 10.7052273,105 23.8636364,105 L26.25,105 C69.6722727,105 105,69.6722727 105,26.25 L105,23.8636364 C105,10.7052273 94.2947727,0 81.1363636,0 Z M26,100 L26,95.2086098 C60.3962639,95.2086098 89.7535392,69.3255197 94.2912422,35 L99,35.6324635 C94.1510723,72.3273257 62.7696488,100 26,100 Z M96.1111111,26 C96.1111111,16.5644444 88.4355556,8.88888889 79,8.88888889 L79,4 C91.1293333,4 101,13.8706667 101,26 L96.1111111,26 Z"/>
    <filter id="beanify-c" width="103.8%" height="103.8%" x="-1.9%" y="-1.9%" filterUnits="objectBoundingBox">
      <feGaussianBlur in="SourceAlpha" result="shadowBlurInner1" stdDeviation="1.5"/>
      <feOffset dy="1" in="shadowBlurInner1" result="shadowOffsetInner1"/>
      <feComposite in="shadowOffsetInner1" in2="SourceAlpha" k2="-1" k3="1" operator="arithmetic" result="shadowInnerInner1"/>
      <feColorMatrix in="shadowInnerInner1" values="0 0 0 0 0   0 0 0 0 0   0 0 0 0 0  0 0 0 0.5 0"/>
    </filter>
    <linearGradient id="beanify-d" x1="50%" x2="50%" y1="0%" y2="100%">
      <stop offset="0%" stop-color="#00D3A4"/>
      <stop offset="100%" stop-color="#00A86B"/>
    </linearGradient>
    <path id="beanify-e" d="M154.152,100.064 C159.398,100.064 164.1925,99.3545 168.5355,97.9355 C172.8785,96.5165 176.555,94.431 179.565,91.679 C182.575,88.927 184.9185,85.4655 186.5955,81.2945 C188.2725,77.1235 189.111,72.243 189.111,66.653 C189.111,61.235 188.294,56.462 186.66,52.334 C185.026,48.206 182.79,44.7445 179.952,41.9495 C177.114,39.1545 173.846,37.026 170.148,35.564 C166.45,34.102 162.537,33.371 158.409,33.371 C156.087,33.371 153.9585,33.543 152.0235,33.887 C150.0885,34.231 148.046,34.833 145.896,35.693 L145.896,35.693 L145.896,23.051 C145.896,20.901 145.638,19.1595 145.122,17.8265 C144.606,16.4935 143.832,15.44 142.8,14.666 C141.768,13.892 140.4995,13.376 138.9945,13.118 C137.4895,12.86 135.791,12.731 133.899,12.731 C131.921,12.731 129.986,12.8815 128.094,13.1825 C126.202,13.4835 124.826,13.763 123.966,14.021 L123.966,14.021 L123.966,82.778 C123.966,86.992 125.858,90.432 129.642,93.098 C132.394,95.076 135.748,96.7315 139.704,98.0645 C143.66,99.3975 148.476,100.064 154.152,100.064 Z M154.152,82.778 C152.174,82.778 150.5185,82.5845 149.1855,82.1975 C147.8525,81.8105 146.713,81.316 145.767,80.714 L145.767,80.714 L145.767,52.592 C147.229,51.904 148.5835,51.388 149.8305,51.044 C151.0775,50.7 152.561,50.528 154.281,50.528 C158.065,50.528 161.075,51.861 163.311,54.527 C165.547,57.193 166.665,61.235 166.665,66.653 C166.665,71.985 165.5685,76.0055 163.3755,78.7145 C161.1825,81.4235 158.108,82.778 154.152,82.778 Z"/>
    <filter id="beanify-f" width="106.1%" height="104.6%" x="-3.1%" y="-2.3%" filterUnits="objectBoundingBox">
      <feGaussianBlur in="SourceAlpha" result="shadowBlurInner1" stdDeviation="1.5"/>
      <feOffset dy="1" in="shadowBlurInner1" result="shadowOffsetInner1"/>
      <feComposite in="shadowOffsetInner1" in2="SourceAlpha" k2="-1" k3="1" operator="arithmetic" result="shadowInnerInner1"/>
      <feColorMatrix in="shadowInnerInner1" values="0 0 0 0 0   0 0 0 0 0   0 0 0 0 0  0 0 0 0.5 0"/>
    </filter>
    <linearGradient id="beanify-g" x1="50%" x2="50%" y1="0%" y2="100%">
      <stop offset="0%" stop-color="#F9F25E"/>
      <stop offset="100%" stop-color="#F0E130"/>
    </linearGradient>
    <path id="beanify-h" d="M223.559,33.371 C228.117,33.371 232.2665,34.059 236.0075,35.435 C239.7485,36.811 242.9735,38.703 245.6825,41.111 C248.3915,43.519 250.4985,46.4 252.0035,49.754 C253.5085,53.108 254.261,56.763 254.261,60.719 C254.261,63.643 253.444,65.879 251.81,67.427 C250.176,68.975 247.897,69.964 244.973,70.394 L244.973,70.394 L213.11,75.167 L213.223543,75.4913129 C214.206309,78.1676812 216.103462,80.1880769 218.915,81.5525 C221.839,82.9715 225.193,83.681 228.977,83.681 C232.503,83.681 235.8355,83.2295 238.9745,82.3265 C242.1135,81.4235 244.672,80.37 246.65,79.166 C248.026,80.026 249.187,81.23 250.133,82.778 C251.079,84.326 251.552,85.96 251.552,87.68 C251.552,91.55 249.746,94.431 246.134,96.323 C243.382,97.785 240.286,98.774 236.846,99.29 C233.406,99.806 230.181,100.064 227.171,100.064 C222.097,100.064 217.3885,99.3545 213.0455,97.9355 C208.7025,96.5165 204.9185,94.388 201.6935,91.55 C198.4685,88.712 195.9315,85.143 194.0825,80.843 C192.2335,76.543 191.309,71.512 191.309,65.75 C191.309,60.074 192.2335,55.1935 194.0825,51.1085 C195.9315,47.0235 198.361,43.6695 201.371,41.0465 C204.381,38.4235 207.821,36.4885 211.691,35.2415 C215.561,33.9945 219.517,33.371 223.559,33.371 Z M223.559,49.367 C221.495,49.367 219.7105,49.711 218.2055,50.399 C216.7005,51.087 215.475,51.9685 214.529,53.0435 C213.583,54.1185 212.8735,55.3225 212.4005,56.6555 C211.9275,57.9885 211.648,59.343 211.562,60.719 L211.562,60.719 L233.621,57.107 L233.568329,56.8034706 C233.249325,55.1846471 232.320882,53.5658235 230.783,51.947 C229.149,50.227 226.741,49.367 223.559,49.367 Z"/>
    <filter id="beanify-i" width="106.4%" height="106%" x="-3.2%" y="-3%" filterUnits="objectBoundingBox">
      <feGaussianBlur in="SourceAlpha" result="shadowBlurInner1" stdDeviation="1.5"/>
      <feOffset dy="1" in="shadowBlurInner1" result="shadowOffsetInner1"/>
      <feComposite in="shadowOffsetInner1" in2="SourceAlpha" k2="-1" k3="1" operator="arithmetic" result="shadowInnerInner1"/>
      <feColorMatrix in="shadowInnerInner1" values="0 0 0 0 0   0 0 0 0 0   0 0 0 0 0  0 0 0 0.5 0"/>
    </filter>
    <linearGradient id="beanify-j" x1="50%" x2="50%" y1="0%" y2="100%">
      <stop offset="0%" stop-color="#FFC000"/>
      <stop offset="100%" stop-color="#FF8C00"/>
    </linearGradient>
    <path id="beanify-k" d="M284.839,33.371 C289.483,33.371 293.7185,33.844 297.5455,34.79 C301.3725,35.736 304.6405,37.1765 307.3495,39.1115 C310.0585,41.0465 312.144,43.4975 313.606,46.4645 C315.068,49.4315 315.799,52.936 315.799,56.978 L315.799,56.978 L315.799,85.874 L315.793227,86.2428843 C315.727798,88.3117948 315.106222,90.0163333 313.9285,91.3565 C312.6815,92.7755 311.198,94.001 309.478,95.033 C303.888,98.387 296.019,100.064 285.871,100.064 C281.313,100.064 277.2065,99.634 273.5515,98.774 C269.8965,97.914 266.7575,96.624 264.1345,94.904 C261.5115,93.184 259.4905,90.991 258.0715,88.325 C256.6525,85.659 255.943,82.563 255.943,79.037 C255.943,73.103 257.706,68.545 261.232,65.363 C264.758,62.181 270.219,60.203 277.615,59.429 L277.615,59.429 L294.514,57.623 L294.514,56.72 L294.509488,56.4458086 C294.431274,54.0947881 293.336278,52.4016852 291.2245,51.3665 C289.0315,50.2915 285.871,49.754 281.743,49.754 C278.475,49.754 275.293,50.098 272.197,50.786 C269.101,51.474 266.306,52.334 263.812,53.366 C262.694,52.592 261.748,51.4095 260.974,49.8185 C260.2,48.2275 259.813,46.572 259.813,44.852 C259.813,42.616 260.3505,40.8315 261.4255,39.4985 C262.5005,38.1655 264.156,37.026 266.392,36.08 C268.886,35.134 271.8315,34.446 275.2285,34.016 C278.6255,33.586 281.829,33.371 284.839,33.371 Z M294.643,72.071 L285.355,72.845 L284.879133,72.8839867 C282.685178,73.0873289 280.8658,73.5903333 279.421,74.393 C277.873,75.253 277.099,76.543 277.099,78.263 C277.099,79.983 277.7655,81.3805 279.0985,82.4555 C280.4315,83.5305 282.689,84.068 285.871,84.068 C287.333,84.068 288.9455,83.9175 290.7085,83.6165 C292.4715,83.3155 293.783,82.907 294.643,82.391 L294.643,82.391 L294.643,72.071 Z"/>
    <filter id="beanify-l" width="106.7%" height="106%" x="-3.3%" y="-3%" filterUnits="objectBoundingBox">
      <feGaussianBlur in="SourceAlpha" result="shadowBlurInner1" stdDeviation="1.5"/>
      <feOffset dy="1" in="shadowBlurInner1" result="shadowOffsetInner1"/>
      <feComposite in="shadowOffsetInner1" in2="SourceAlpha" k2="-1" k3="1" operator="arithmetic" result="shadowInnerInner1"/>
      <feColorMatrix in="shadowInnerInner1" values="0 0 0 0 0   0 0 0 0 0   0 0 0 0 0  0 0 0 0.5 0"/>
    </filter>
    <linearGradient id="beanify-m" x1="50%" x2="50%" y1="0%" y2="100%">
      <stop offset="0%" stop-color="#C2DFC2"/>
      <stop offset="100%" stop-color="#8FBC8F"/>
    </linearGradient>
    <path id="beanify-n" d="M375.273,99.032 C377.251,99.032 379.1645,98.903 381.0135,98.645 C382.8625,98.387 384.217,98.129 385.077,97.871 L385.077,97.871 L385.077,57.494 C385.077,49.926 382.454,44.0135 377.208,39.7565 C371.962,35.4995 364.48,33.371 354.762,33.371 C349.344,33.371 344.4205,34.016 339.9915,35.306 C335.5625,36.596 331.886,38.273 328.962,40.337 C327.242,41.541 325.8875,42.874 324.8985,44.336 C323.9095,45.798 323.415,47.69 323.415,50.012 L323.415,50.012 L323.415,88.712 C323.415,90.862 323.6945,92.6035 324.2535,93.9365 C324.8125,95.2695 325.608,96.323 326.64,97.097 C327.672,97.871 328.9405,98.387 330.4455,98.645 C331.9505,98.903 333.649,99.032 335.541,99.032 C337.519,99.032 339.4325,98.903 341.2815,98.645 C343.1305,98.387 344.485,98.129 345.345,97.871 L345.345,97.871 L345.345,53.108 C346.549,52.248 347.9895,51.603 349.6665,51.173 C351.3435,50.743 353.042,50.528 354.762,50.528 C357.342,50.528 359.3845,51.1515 360.8895,52.3985 C362.3945,53.6455 363.147,55.602 363.147,58.268 L363.147,58.268 L363.147,88.712 C363.147,90.862 363.4265,92.6035 363.9855,93.9365 C364.5445,95.2695 365.34,96.323 366.372,97.097 C367.404,97.871 368.6725,98.387 370.1775,98.645 C371.6825,98.903 373.381,99.032 375.273,99.032 Z"/>
    <filter id="beanify-o" width="106.5%" height="106.1%" x="-3.2%" y="-3%" filterUnits="objectBoundingBox">
      <feGaussianBlur in="SourceAlpha" result="shadowBlurInner1" stdDeviation="1.5"/>
      <feOffset dy="1" in="shadowBlurInner1" result="shadowOffsetInner1"/>
      <feComposite in="shadowOffsetInner1" in2="SourceAlpha" k2="-1" k3="1" operator="arithmetic" result="shadowInnerInner1"/>
      <feColorMatrix in="shadowInnerInner1" values="0 0 0 0 0   0 0 0 0 0   0 0 0 0 0  0 0 0 0.5 0"/>
    </filter>
    <linearGradient id="beanify-q" x1="50%" x2="50%" y1="0%" y2="100%">
      <stop offset="0%" stop-color="#BB99C1"/>
      <stop offset="100%" stop-color="#86608E"/>
    </linearGradient>
    <path id="beanify-p" d="M403.142,35.048 C405.034,35.048 406.7325,35.177 408.2375,35.435 C409.7425,35.693 411.011,36.209 412.043,36.983 C413.075,37.757 413.8705,38.8105 414.4295,40.1435 C414.9885,41.4765 415.268,43.218 415.268,45.368 L415.268,45.368 L415.268,97.871 L415.058375,97.9088444 C414.120054,98.0771148 412.792429,98.301 411.0755,98.5805 C409.2265,98.8815 407.356,99.032 405.464,99.032 C403.572,99.032 401.8735,98.903 400.3685,98.645 C398.8635,98.387 397.595,97.871 396.563,97.097 C395.531,96.323 394.7355,95.2695 394.1765,93.9365 C393.6175,92.6035 393.338,90.862 393.338,88.712 L393.338,88.712 L393.338,36.209 L393.547625,36.1711556 C394.485946,36.0028852 395.813571,35.779 397.5305,35.4995 C399.3795,35.1985 401.25,35.048 403.142,35.048 Z M404.303,6.281 C407.915,6.281 410.8175,7.399 413.0105,9.635 C415.2035,11.871 416.3,14.623 416.3,17.891 C416.3,21.159 415.2035,23.911 413.0105,26.147 C410.8175,28.383 407.915,29.501 404.303,29.501 C400.691,29.501 397.7885,28.383 395.5955,26.147 C393.4025,23.911 392.306,21.159 392.306,17.891 C392.306,14.623 393.4025,11.871 395.5955,9.635 C397.7885,7.399 400.691,6.281 404.303,6.281 Z"/>
    <filter id="beanify-r" width="116.7%" height="104.3%" x="-8.3%" y="-2.2%" filterUnits="objectBoundingBox">
      <feGaussianBlur in="SourceAlpha" result="shadowBlurInner1" stdDeviation="1.5"/>
      <feOffset dy="1" in="shadowBlurInner1" result="shadowOffsetInner1"/>
      <feComposite in="shadowOffsetInner1" in2="SourceAlpha" k2="-1" k3="1" operator="arithmetic" result="shadowInnerInner1"/>
      <feColorMatrix in="shadowInnerInner1" values="0 0 0 0 0   0 0 0 0 0   0 0 0 0 0  0 0 0 0.5 0"/>
    </filter>
    <linearGradient id="beanify-t" x1="50%" x2="50%" y1="0%" y2="100%">
      <stop offset="0%" stop-color="#FFCEB2"/>
      <stop offset="100%" stop-color="#FFA07A"/>
    </linearGradient>
    <path id="beanify-s" d="M435.784,99.032 C437.762,99.032 439.6755,98.903 441.5245,98.645 C443.3735,98.387 444.728,98.129 445.588,97.871 L445.588,97.871 L445.588,56.978 L460.423,56.978 C462.659,56.978 464.4435,56.3115 465.7765,54.9785 C467.1095,53.6455 467.776,51.474 467.776,48.464 C467.776,46.744 467.5395,45.1745 467.0665,43.7555 C466.5935,42.3365 466.099,41.154 465.583,40.208 L465.583,40.208 L444.427,40.208 L444.427,36.08 C444.427,32.984 445.459,30.8125 447.523,29.5655 C449.587,28.3185 452.468,27.695 456.166,27.695 C458.488,27.695 460.5305,27.8455 462.2935,28.1465 C464.0565,28.4475 465.755,28.813 467.389,29.243 C468.249,28.555 469.0445,27.523 469.7755,26.147 C470.5065,24.771 470.872,23.223 470.872,21.503 C470.872,17.461 469.367,14.6015 466.357,12.9245 C463.347,11.2475 458.66,10.409 452.296,10.409 C448.34,10.409 444.6205,10.882 441.1375,11.828 C437.6545,12.774 434.623,14.2575 432.043,16.2785 C429.463,18.2995 427.4205,20.8795 425.9155,24.0185 C424.4105,27.1575 423.658,30.92 423.658,35.306 L423.658,35.306 L423.658,88.712 C423.658,90.862 423.9375,92.6035 424.4965,93.9365 C425.0555,95.2695 425.851,96.323 426.883,97.097 C427.915,97.871 429.1835,98.387 430.6885,98.645 C432.1935,98.903 433.892,99.032 435.784,99.032 Z"/>
    <filter id="beanify-u" width="108.5%" height="104.5%" x="-4.2%" y="-2.3%" filterUnits="objectBoundingBox">
      <feGaussianBlur in="SourceAlpha" result="shadowBlurInner1" stdDeviation="1.5"/>
      <feOffset dy="1" in="shadowBlurInner1" result="shadowOffsetInner1"/>
      <feComposite in="shadowOffsetInner1" in2="SourceAlpha" k2="-1" k3="1" operator="arithmetic" result="shadowInnerInner1"/>
      <feColorMatrix in="shadowInnerInner1" values="0 0 0 0 0   0 0 0 0 0   0 0 0 0 0  0 0 0 0.5 0"/>
    </filter>
    <linearGradient id="beanify-w" x1="50%" x2="50%" y1="0%" y2="100%">
      <stop offset="0%" stop-color="#FF62E8"/>
      <stop offset="100%" stop-color="#F3C"/>
    </linearGradient>
    <path id="beanify-v" d="M488.808,120.833 C490.872,120.833 492.85,120.5535 494.742,119.9945 C496.634,119.4355 498.526,118.4035 500.418,116.8985 C502.31,115.3935 504.288,113.308 506.352,110.642 C508.416,107.976 510.652,104.536 513.06,100.322 C514.522,97.828 516.027,95.0115 517.575,91.8725 C519.123,88.7335 520.628,85.401 522.09,81.875 C523.552,78.349 524.9495,74.7585 526.2825,71.1035 C527.6155,67.4485 528.7765,63.901 529.7655,60.461 C530.7545,57.021 531.55,53.7745 532.152,50.7215 C532.754,47.6685 533.055,44.981 533.055,42.659 C533.055,39.477 532.066,37.241 530.088,35.951 C528.11,34.661 525.616,34.016 522.606,34.016 C518.908,34.016 515.511,34.833 512.415,36.467 C511.813,39.993 511.1035,43.5835 510.2865,47.2385 C509.4695,50.8935 508.588,54.5485 507.642,58.2035 C506.696,61.8585 505.7285,65.406 504.7395,68.846 C503.7505,72.286 502.74,75.468 501.708,78.392 L501.708,78.392 L501.192,78.392 L491.001,42.917 C490.055,39.477 488.593,37.1335 486.615,35.8865 C484.637,34.6395 482.143,34.016 479.133,34.016 C476.725,34.016 474.5105,34.4675 472.4895,35.3705 C470.4685,36.2735 468.856,37.327 467.652,38.531 C469.028,44.293 470.3395,49.3885 471.5865,53.8175 C472.8335,58.2465 474.0375,62.181 475.1985,65.621 C476.3595,69.061 477.4775,72.114 478.5525,74.78 C479.6275,77.446 480.638,79.854 481.584,82.004 C483.562,86.39 485.3895,89.3785 487.0665,90.9695 C488.7435,92.5605 490.313,93.571 491.775,94.001 C489.539,96.753 487.045,99.4405 484.293,102.0635 C481.541,104.6865 478.789,107.073 476.037,109.223 C476.467,112.663 477.8,115.458 480.036,117.608 C482.272,119.758 485.196,120.833 488.808,120.833 Z"/>
    <filter id="beanify-x" width="106.1%" height="104.6%" x="-3.1%" y="-2.3%" filterUnits="objectBoundingBox">
      <feGaussianBlur in="SourceAlpha" result="shadowBlurInner1" stdDeviation="1.5"/>
      <feOffset dy="1" in="shadowBlurInner1" result="shadowOffsetInner1"/>
      <feComposite in="shadowOffsetInner1" in2="SourceAlpha" k2="-1" k3="1" operator="arithmetic" result="shadowInnerInner1"/>
      <feColorMatrix in="shadowInnerInner1" values="0 0 0 0 0   0 0 0 0 0   0 0 0 0 0  0 0 0 0.5 0"/>
    </filter>
  </defs>
  <g fill="none">
    <use fill="url(#beanify-a)" xlink:href="#beanify-b"/>
    <use fill="#000" filter="url(#beanify-c)" xlink:href="#beanify-b"/>
    <use fill="url(#beanify-d)" xlink:href="#beanify-e"/>
    <use fill="#000" filter="url(#beanify-f)" xlink:href="#beanify-e"/>
    <use fill="url(#beanify-g)" xlink:href="#beanify-h"/>
    <use fill="#000" filter="url(#beanify-i)" xlink:href="#beanify-h"/>
    <use fill="url(#beanify-j)" xlink:href="#beanify-k"/>
    <use fill="#000" filter="url(#beanify-l)" xlink:href="#beanify-k"/>
    <use fill="url(#beanify-m)" xlink:href="#beanify-n"/>
    <use fill="#000" filter="url(#beanify-o)" xlink:href="#beanify-n"/>
    <use fill="#BD10E0" xlink:href="#beanify-p"/>
    <use fill="url(#beanify-q)" xlink:href="#beanify-p"/>
    <use fill="#000" filter="url(#beanify-r)" xlink:href="#beanify-p"/>
    <use fill="#BD10E0" xlink:href="#beanify-s"/>
    <use fill="url(#beanify-t)" xlink:href="#beanify-s"/>
    <use fill="#000" filter="url(#beanify-u)" xlink:href="#beanify-s"/>
    <use fill="#BD10E0" xlink:href="#beanify-v"/>
    <use fill="url(#beanify-w)" xlink:href="#beanify-v"/>
    <use fill="#000" filter="url(#beanify-x)" xlink:href="#beanify-v"/>
    <path fill="#4A4A4A" d="M151.436957,122.253 C152.402957,122.253 152.954957,122.069 153.138957,122 L153.138957,120.597 C152.954957,120.689 152.333957,120.804 151.827957,120.804 C150.286957,120.804 149.481957,120.344 149.481957,118.412 L149.481957,111.259 L153.368957,111.259 L153.368957,109.81 L149.481957,109.81 L149.481957,106.36 L147.871957,106.36 L147.871957,109.81 L145.939957,109.81 L145.939957,111.259 L147.871957,111.259 L147.871957,118.619 C147.871957,121.264 149.366957,122.253 151.436957,122.253 Z M157.554957,122 L157.554957,112.892 C158.060957,112.087 159.003957,111.006 160.912957,111.006 C162.522957,111.006 163.557957,111.857 163.557957,113.697 L163.557957,122 L165.167957,122 L165.167957,113.467 C165.167957,111.19 163.879957,109.557 161.464957,109.557 C159.532957,109.557 158.290957,110.316 157.554957,111.282 L157.554957,103.6 L155.944957,103.6 L155.944957,122 L157.554957,122 Z M170.089957,106.935 L170.089957,104.865 L168.019957,104.865 L168.019957,106.935 L170.089957,106.935 Z M169.859957,122 L169.859957,109.81 L168.249957,109.81 L168.249957,122 L169.859957,122 Z M174.666957,122 L174.666957,112.892 C175.172957,112.087 176.115957,111.006 178.024957,111.006 C179.634957,111.006 180.669957,111.857 180.669957,113.697 L180.669957,122 L182.279957,122 L182.279957,113.467 C182.279957,111.19 180.991957,109.557 178.576957,109.557 C176.483957,109.557 175.195957,110.454 174.482957,111.535 L174.252957,109.81 L172.918957,109.81 L173.056957,113.26 L173.056957,122 L174.666957,122 Z M186.787957,122 L186.787957,118.412 L189.294957,115.652 L192.744957,122 L194.584957,122 L190.398957,114.433 L194.584957,109.81 L192.583957,109.81 L186.787957,116.25 L186.787957,103.6 L185.177957,103.6 L185.177957,122 L186.787957,122 Z M198.724957,106.935 L198.724957,104.865 L196.654957,104.865 L196.654957,106.935 L198.724957,106.935 Z M198.494957,122 L198.494957,109.81 L196.884957,109.81 L196.884957,122 L198.494957,122 Z M203.301957,122 L203.301957,112.892 C203.807957,112.087 204.750957,111.006 206.659957,111.006 C208.269957,111.006 209.304957,111.857 209.304957,113.697 L209.304957,122 L210.914957,122 L210.914957,113.467 C210.914957,111.19 209.626957,109.557 207.211957,109.557 C205.118957,109.557 203.830957,110.454 203.117957,111.535 L202.887957,109.81 L201.553957,109.81 L201.691957,113.26 L201.691957,122 L203.301957,122 Z M223.495957,122.253 C226.830957,122.253 228.164957,119.562 228.164957,116.181 L228.164957,115.629 C228.164957,112.248 226.830957,109.557 223.495957,109.557 C221.793957,109.557 220.689957,110.293 220.045957,111.213 L220.045957,103.6 L218.435957,103.6 L218.435957,118.55 L218.297957,122 L219.631957,122 L219.861957,120.344 C220.505957,121.402 221.632957,122.253 223.495957,122.253 Z M223.127957,120.804 C221.471957,120.804 220.528957,119.723 220.045957,118.918 L220.045957,112.892 C220.528957,112.087 221.471957,111.006 223.127957,111.006 C225.427957,111.006 226.508957,112.8 226.508957,115.629 L226.508957,116.181 C226.508957,119.01 225.427957,120.804 223.127957,120.804 Z M235.524957,122.253 C239.112957,122.253 240.653957,119.562 240.653957,116.181 L240.653957,115.629 C240.653957,112.248 239.112957,109.557 235.524957,109.557 C231.936957,109.557 230.395957,112.248 230.395957,115.629 L230.395957,116.181 C230.395957,119.562 231.936957,122.253 235.524957,122.253 Z M235.524957,120.804 C233.109957,120.804 232.028957,118.964 232.028957,116.181 L232.028957,115.629 C232.028957,112.846 233.109957,111.006 235.524957,111.006 C237.939957,111.006 239.020957,112.846 239.020957,115.629 L239.020957,116.181 C239.020957,118.964 237.939957,120.804 235.524957,120.804 Z M246.886957,122.253 C248.956957,122.253 250.267957,121.379 250.957957,120.298 L251.210957,122 L252.544957,122 L252.406957,118.55 L252.406957,109.81 L250.796957,109.81 L250.796957,118.918 C250.290957,119.723 249.347957,120.804 247.415957,120.804 C245.805957,120.804 244.770957,119.953 244.770957,118.113 L244.770957,109.81 L243.183957,109.81 L243.183957,118.343 C243.183957,120.62 244.448957,122.253 246.886957,122.253 Z M260.134957,122.253 C261.100957,122.253 261.652957,122.069 261.836957,122 L261.836957,120.597 C261.652957,120.689 261.031957,120.804 260.525957,120.804 C258.984957,120.804 258.179957,120.344 258.179957,118.412 L258.179957,111.259 L262.066957,111.259 L262.066957,109.81 L258.179957,109.81 L258.179957,106.36 L256.569957,106.36 L256.569957,109.81 L254.637957,109.81 L254.637957,111.259 L256.569957,111.259 L256.569957,118.619 C256.569957,121.264 258.064957,122.253 260.134957,122.253 Z M264.044957,108.844 C265.746957,108.844 266.643957,107.809 266.643957,105.716 L266.643957,104.06 L264.573957,104.06 L264.573957,106.13 L265.654957,106.13 C265.562957,107.441 264.987957,107.878 264.044957,107.878 L264.044957,108.844 Z M278.902957,122.253 C279.868957,122.253 280.420957,122.069 280.604957,122 L280.604957,120.597 C280.420957,120.689 279.799957,120.804 279.293957,120.804 C277.752957,120.804 276.947957,120.344 276.947957,118.412 L276.947957,111.259 L280.834957,111.259 L280.834957,109.81 L276.947957,109.81 L276.947957,106.36 L275.337957,106.36 L275.337957,109.81 L273.405957,109.81 L273.405957,111.259 L275.337957,111.259 L275.337957,118.619 C275.337957,121.264 276.832957,122.253 278.902957,122.253 Z M285.020957,122 L285.020957,112.892 C285.526957,112.087 286.469957,111.006 288.378957,111.006 C289.988957,111.006 291.023957,111.857 291.023957,113.697 L291.023957,122 L292.633957,122 L292.633957,113.467 C292.633957,111.19 291.345957,109.557 288.930957,109.557 C286.998957,109.557 285.756957,110.316 285.020957,111.282 L285.020957,103.6 L283.410957,103.6 L283.410957,122 L285.020957,122 Z M300.430957,122.253 C303.857957,122.253 305.421957,120.068 305.421957,118.182 L305.421957,118.09 L303.880957,118.09 C303.880957,119.401 302.868957,120.896 300.430957,120.896 C297.992957,120.896 296.865957,119.24 296.796957,116.572 L305.421957,116.572 L305.421957,115.652 C305.421957,112.271 303.880957,109.557 300.315957,109.557 C296.750957,109.557 295.163957,112.271 295.163957,115.652 L295.163957,116.158 C295.163957,119.539 296.750957,122.253 300.430957,122.253 Z M303.788957,115.238 L296.796957,115.238 C296.865957,112.593 297.992957,110.914 300.292957,110.914 C302.615957,110.914 303.696957,112.593 303.788957,115.238 Z M309.676957,122 L309.676957,112.846 C310.182957,112.064 311.010957,111.006 312.712957,111.006 C314.092957,111.006 315.058957,111.535 315.058957,113.398 L315.058957,122 L316.668957,122 L316.668957,112.846 C317.174957,112.064 318.002957,111.006 319.704957,111.006 C321.084957,111.006 322.050957,111.535 322.050957,113.398 L322.050957,122 L323.660957,122 L323.660957,113.168 C323.660957,110.868 322.441957,109.557 320.256957,109.557 C318.278957,109.557 317.059957,110.477 316.415957,111.581 C315.955957,110.27 314.874957,109.557 313.264957,109.557 C311.355957,109.557 310.159957,110.431 309.492957,111.466 L309.262957,109.81 L307.928957,109.81 L308.066957,113.26 L308.066957,122 L309.676957,122 Z M336.241957,122.253 C339.576957,122.253 340.910957,119.562 340.910957,116.181 L340.910957,115.629 C340.910957,112.248 339.576957,109.557 336.241957,109.557 C334.539957,109.557 333.435957,110.293 332.791957,111.213 L332.791957,103.6 L331.181957,103.6 L331.181957,118.55 L331.043957,122 L332.377957,122 L332.607957,120.344 C333.251957,121.402 334.378957,122.253 336.241957,122.253 Z M335.873957,120.804 C334.217957,120.804 333.274957,119.723 332.791957,118.918 L332.791957,112.892 C333.274957,112.087 334.217957,111.006 335.873957,111.006 C338.173957,111.006 339.254957,112.8 339.254957,115.629 L339.254957,116.181 C339.254957,119.01 338.173957,120.804 335.873957,120.804 Z M348.408957,122.253 C351.835957,122.253 353.399957,120.068 353.399957,118.182 L353.399957,118.09 L351.858957,118.09 C351.858957,119.401 350.846957,120.896 348.408957,120.896 C345.970957,120.896 344.843957,119.24 344.774957,116.572 L353.399957,116.572 L353.399957,115.652 C353.399957,112.271 351.858957,109.557 348.293957,109.557 C344.728957,109.557 343.141957,112.271 343.141957,115.652 L343.141957,116.158 C343.141957,119.539 344.728957,122.253 348.408957,122.253 Z M351.766957,115.238 L344.774957,115.238 C344.843957,112.593 345.970957,110.914 348.270957,110.914 C350.593957,110.914 351.674957,112.593 351.766957,115.238 Z M359.080957,122.253 C361.196957,122.253 362.576957,121.356 363.381957,120.298 L363.634957,122 L364.968957,122 L364.830957,118.55 L364.830957,114.088 C364.830957,111.397 363.795957,109.557 360.414957,109.557 C356.826957,109.557 356.021957,111.788 356.021957,113.628 L356.021957,113.835 L357.562957,113.835 C357.562957,112.248 358.091957,110.914 360.391957,110.914 C362.553957,110.914 363.220957,111.995 363.220957,114.088 L363.220957,114.41 L359.540957,114.985 C357.562957,115.284 355.561957,116.043 355.561957,118.688 L355.561957,118.918 C355.561957,120.873 356.849957,122.253 359.080957,122.253 Z M359.494957,120.85 C357.861957,120.85 357.171957,119.861 357.171957,118.78 L357.171957,118.573 C357.171957,117.193 358.114957,116.434 359.678957,116.158 L363.220957,115.583 L363.220957,118.918 C362.783957,119.631 361.748957,120.85 359.494957,120.85 Z M369.430957,122 L369.430957,112.892 C369.936957,112.087 370.879957,111.006 372.788957,111.006 C374.398957,111.006 375.433957,111.857 375.433957,113.697 L375.433957,122 L377.043957,122 L377.043957,113.467 C377.043957,111.19 375.755957,109.557 373.340957,109.557 C371.247957,109.557 369.959957,110.454 369.246957,111.535 L369.016957,109.81 L367.682957,109.81 L367.820957,113.26 L367.820957,122 L369.430957,122 Z M384.449957,122.253 C387.462957,122.253 389.141957,120.781 389.141957,118.665 L389.141957,118.55 C389.141957,116.319 387.830957,115.445 384.771957,115.192 C382.126957,114.985 381.528957,114.295 381.528957,113.03 C381.528957,111.673 382.609957,110.914 384.449957,110.914 C386.726957,110.914 387.416957,111.995 387.416957,113.743 L389.003957,113.743 L389.003957,113.651 C389.003957,111.259 387.784957,109.557 384.449957,109.557 C381.597957,109.557 379.918957,110.914 379.918957,113.03 L379.918957,113.168 C379.918957,114.985 380.861957,116.135 384.150957,116.411 C386.519957,116.618 387.485957,117.009 387.485957,118.665 C387.485957,120.022 386.427957,120.896 384.449957,120.896 C382.034957,120.896 381.367957,119.608 381.367957,118.274 L379.757957,118.274 L379.757957,118.366 C379.757957,120.229 380.999957,122.253 384.449957,122.253 Z M391.372957,124.714 C393.074957,124.714 393.971957,123.679 393.971957,121.586 L393.971957,119.93 L391.901957,119.93 L391.901957,122 L392.982957,122 C392.890957,123.311 392.315957,123.748 391.372957,123.748 L391.372957,124.714 Z M399.544922,125.994629 C399.694336,125.994629 399.856934,125.96167 400.032715,125.895752 C400.208496,125.829834 400.379883,125.735352 400.546875,125.612305 C400.713867,125.489258 400.867676,125.342041 401.008301,125.170654 C401.148926,124.999268 401.267578,124.8125 401.364258,124.610352 C401.504883,124.329102 401.689453,123.948975 401.917969,123.469971 C402.146484,122.990967 402.401367,122.454834 402.682617,121.861572 C402.963867,121.268311 403.260498,120.639893 403.57251,119.976318 C403.884521,119.312744 404.196533,118.655762 404.508545,118.005371 C404.820557,117.35498 405.119385,116.733154 405.405029,116.139893 C405.690674,115.546631 405.947754,115.025879 406.17627,114.577637 L406.17627,114.577637 L407.323242,114.577637 C407.701172,114.577637 408.083496,114.575439 408.470215,114.571045 C408.856934,114.56665 409.254639,114.560059 409.66333,114.55127 C410.072021,114.54248 410.504883,114.529297 410.961914,114.511719 C411.199219,114.494141 411.392578,114.456787 411.541992,114.399658 C411.691406,114.342529 411.807861,114.272217 411.891357,114.188721 C411.974854,114.105225 412.03418,114.015137 412.069336,113.918457 C412.104492,113.821777 412.12207,113.725098 412.12207,113.628418 C412.12207,113.435059 412.071533,113.287842 411.970459,113.186768 C411.869385,113.085693 411.72876,113.013184 411.548584,112.969238 C411.368408,112.925293 411.159668,112.898926 410.922363,112.890137 C410.685059,112.881348 410.430176,112.876953 410.157715,112.876953 L410.157715,112.876953 L407.085938,112.876953 C407.305664,112.349609 407.586914,111.833252 407.929688,111.327881 C408.272461,110.82251 408.630615,110.37207 409.00415,109.976562 C409.377686,109.581055 409.746826,109.264648 410.111572,109.027344 C410.476318,108.790039 410.794922,108.671387 411.067383,108.671387 C411.295898,108.671387 411.478271,108.750488 411.614502,108.908691 C411.750732,109.066895 411.818848,109.330566 411.818848,109.699707 C411.818848,109.796387 411.812256,109.893066 411.799072,109.989746 C411.785889,110.086426 411.779297,110.191895 411.779297,110.306152 C411.779297,110.481934 411.854004,110.611572 412.003418,110.695068 C412.152832,110.778564 412.31543,110.820312 412.491211,110.820312 C412.561523,110.820312 412.64502,110.809326 412.741699,110.787354 C412.838379,110.765381 412.935059,110.728027 413.031738,110.675293 C413.128418,110.622559 413.216309,110.554443 413.29541,110.470947 C413.374512,110.387451 413.427246,110.28418 413.453613,110.161133 C413.559082,109.704102 413.611816,109.286621 413.611816,108.908691 C413.611816,108.513184 413.559082,108.168213 413.453613,107.873779 C413.348145,107.579346 413.209717,107.335449 413.03833,107.14209 C412.866943,106.94873 412.669189,106.803711 412.445068,106.707031 C412.220947,106.610352 411.98584,106.562012 411.739746,106.562012 C411.212402,106.562012 410.660889,106.654297 410.085205,106.838867 C409.509521,107.023438 408.918457,107.353027 408.312012,107.827637 C407.705566,108.302246 407.088135,108.948242 406.459717,109.765625 C405.831299,110.583008 405.205078,111.620117 404.581055,112.876953 L404.581055,112.876953 L403.025391,112.876953 C402.603516,112.876953 402.282715,112.97583 402.062988,113.173584 C401.843262,113.371338 401.733398,113.575684 401.733398,113.786621 C401.733398,113.98877 401.821289,114.164551 401.99707,114.313965 C402.172852,114.463379 402.502441,114.538086 402.98584,114.538086 L402.98584,114.538086 L403.68457,114.538086 L399.030762,124.399414 C398.934082,124.601562 398.859375,124.779541 398.806641,124.93335 C398.753906,125.087158 398.727539,125.221191 398.727539,125.335449 C398.727539,125.563965 398.811035,125.730957 398.978027,125.836426 C399.14502,125.941895 399.333984,125.994629 399.544922,125.994629 Z M410.460938,122.32959 C411.111328,122.32959 411.724365,122.248291 412.300049,122.085693 C412.875732,121.923096 413.411865,121.696777 413.908447,121.406738 C414.405029,121.116699 414.855469,120.769531 415.259766,120.365234 C415.664062,119.960938 416.024414,119.512695 416.34082,119.020508 C416.560547,119.178711 416.778076,119.292969 416.993408,119.363281 C417.20874,119.433594 417.430664,119.46875 417.65918,119.46875 C417.993164,119.46875 418.327148,119.376465 418.661133,119.191895 C418.995117,119.007324 419.315918,118.783203 419.623535,118.519531 C419.931152,118.255859 420.221191,117.974609 420.493652,117.675781 C420.766113,117.376953 421.007812,117.113281 421.21875,116.884766 C421.587891,116.55957 421.840576,116.247559 421.976807,115.94873 C422.113037,115.649902 422.181152,115.38623 422.181152,115.157715 C422.181152,114.929199 422.132812,114.751221 422.036133,114.623779 C421.939453,114.496338 421.82959,114.432617 421.706543,114.432617 C421.618652,114.432617 421.543945,114.463379 421.482422,114.524902 C421.368164,114.656738 421.225342,114.817139 421.053955,115.006104 C420.882568,115.195068 420.691406,115.39502 420.480469,115.605957 C420.269531,115.816895 420.04541,116.027832 419.808105,116.23877 C419.570801,116.449707 419.333496,116.638672 419.096191,116.805664 C418.858887,116.972656 418.628174,117.108887 418.404053,117.214355 C418.179932,117.319824 417.975586,117.372559 417.791016,117.372559 C417.65918,117.372559 417.536133,117.350586 417.421875,117.306641 C417.307617,117.262695 417.206543,117.187988 417.118652,117.08252 C417.259277,116.713379 417.364746,116.359619 417.435059,116.02124 C417.505371,115.682861 417.540527,115.381836 417.540527,115.118164 C417.540527,114.608398 417.432861,114.179932 417.217529,113.832764 C417.002197,113.485596 416.731934,113.206543 416.406738,112.995605 C416.081543,112.784668 415.727783,112.635254 415.345459,112.547363 C414.963135,112.459473 414.60498,112.415527 414.270996,112.415527 C413.497559,112.415527 412.794434,112.540771 412.161621,112.79126 C411.528809,113.041748 410.966309,113.371338 410.474121,113.780029 C409.981934,114.188721 409.557861,114.650146 409.201904,115.164307 C408.845947,115.678467 408.551514,116.197021 408.318604,116.719971 C408.085693,117.24292 407.912109,117.750488 407.797852,118.242676 C407.683594,118.734863 407.626465,119.156738 407.626465,119.508301 C407.626465,120.026855 407.727539,120.466309 407.929688,120.82666 C408.131836,121.187012 408.380127,121.479248 408.674561,121.703369 C408.968994,121.92749 409.278809,122.087891 409.604004,122.18457 C409.929199,122.28125 410.214844,122.32959 410.460938,122.32959 Z M411.60791,120.022461 C411.344238,120.022461 411.133301,119.965332 410.975098,119.851074 C410.816895,119.736816 410.696045,119.593994 410.612549,119.422607 C410.529053,119.251221 410.474121,119.06665 410.447754,118.868896 C410.421387,118.671143 410.408203,118.48877 410.408203,118.321777 C410.408203,117.873535 410.496094,117.436279 410.671875,117.01001 C410.847656,116.58374 411.082764,116.201416 411.377197,115.863037 C411.671631,115.524658 412.01001,115.252197 412.392334,115.045654 C412.774658,114.839111 413.172363,114.73584 413.585449,114.73584 C413.85791,114.73584 414.073242,114.786377 414.231445,114.887451 C414.389648,114.988525 414.510498,115.118164 414.593994,115.276367 C414.67749,115.43457 414.730225,115.608154 414.752197,115.797119 C414.77417,115.986084 414.785156,116.168457 414.785156,116.344238 C414.785156,116.79248 414.697266,117.236328 414.521484,117.675781 C414.345703,118.115234 414.108398,118.508545 413.80957,118.855713 C413.510742,119.202881 413.170166,119.484131 412.787842,119.699463 C412.405518,119.914795 412.012207,120.022461 411.60791,120.022461 Z M418.990723,122.32959 C419.166504,122.32959 419.359863,122.290039 419.570801,122.210938 C419.781738,122.131836 419.988281,122.021973 420.19043,121.881348 C420.392578,121.740723 420.579346,121.569336 420.750732,121.367188 C420.922119,121.165039 421.060547,120.936523 421.166016,120.681641 C421.297852,120.391602 421.456055,120.044434 421.640625,119.640137 C421.825195,119.23584 422.016357,118.827148 422.214111,118.414062 C422.411865,118.000977 422.603027,117.605469 422.787598,117.227539 C422.972168,116.849609 423.134766,116.537598 423.275391,116.291504 C423.380859,116.098145 423.556641,115.915771 423.802734,115.744385 C424.048828,115.572998 424.308105,115.421387 424.580566,115.289551 C424.853027,115.157715 425.110107,115.052246 425.351807,114.973145 C425.593506,114.894043 425.76709,114.854492 425.872559,114.854492 C425.934082,114.854492 425.973633,114.876465 425.991211,114.92041 C426.008789,114.964355 426.017578,115.008301 426.017578,115.052246 C426.017578,115.236816 425.956055,115.438965 425.833008,115.658691 C425.709961,115.878418 425.553955,116.11792 425.36499,116.377197 C425.176025,116.636475 424.967285,116.91333 424.73877,117.207764 C424.510254,117.502197 424.290527,117.812012 424.07959,118.137207 C423.868652,118.462402 423.679688,118.805176 423.512695,119.165527 C423.345703,119.525879 423.231445,119.899414 423.169922,120.286133 C423.161133,120.321289 423.156738,120.374023 423.156738,120.444336 C423.156738,120.901367 423.30835,121.274902 423.611572,121.564941 C423.914795,121.85498 424.369629,122 424.976074,122 C425.230957,122 425.531982,121.940674 425.87915,121.822021 C426.226318,121.703369 426.597656,121.547363 426.993164,121.354004 C427.388672,121.160645 427.799561,120.940918 428.22583,120.694824 C428.6521,120.44873 429.073975,120.196045 429.491455,119.936768 C429.908936,119.67749 430.308838,119.427002 430.691162,119.185303 C431.073486,118.943604 431.418457,118.726074 431.726074,118.532715 C432.130371,118.251465 432.418213,117.981201 432.5896,117.721924 C432.760986,117.462646 432.84668,117.231934 432.84668,117.029785 C432.84668,116.854004 432.793945,116.713379 432.688477,116.60791 C432.583008,116.502441 432.451172,116.449707 432.292969,116.449707 C432.222656,116.449707 432.145752,116.465088 432.062256,116.49585 C431.97876,116.526611 431.897461,116.563965 431.818359,116.60791 C431.458008,116.818848 431.018555,117.067139 430.5,117.352783 C429.981445,117.638428 429.432129,117.930664 428.852051,118.229492 C428.271973,118.52832 427.689697,118.820557 427.105225,119.106201 C426.520752,119.391846 425.991211,119.635742 425.516602,119.837891 C425.446289,119.837891 425.406738,119.824707 425.397949,119.79834 C425.38916,119.771973 425.384766,119.723633 425.384766,119.65332 C425.384766,119.574219 425.479248,119.429199 425.668213,119.218262 C425.857178,119.007324 426.094482,118.759033 426.380127,118.473389 L426.380127,118.473389 L427.316162,117.537354 C427.654541,117.198975 427.970947,116.862793 428.265381,116.528809 C428.559814,116.194824 428.816895,115.874023 429.036621,115.566406 C429.256348,115.258789 429.388184,114.990723 429.432129,114.762207 C429.458496,114.63916 429.476074,114.522705 429.484863,114.412842 C429.493652,114.302979 429.498047,114.199707 429.498047,114.103027 C429.498047,113.654785 429.390381,113.336182 429.175049,113.147217 C428.959717,112.958252 428.654297,112.86377 428.258789,112.86377 C428.012695,112.86377 427.733643,112.901123 427.421631,112.97583 C427.109619,113.050537 426.782227,113.151611 426.439453,113.279053 C426.09668,113.406494 425.74292,113.558105 425.378174,113.733887 C425.013428,113.909668 424.659668,114.103027 424.316895,114.313965 L424.316895,114.313965 L424.290527,114.327148 L424.277344,114.327148 C424.268555,114.327148 424.26416,114.318359 424.26416,114.300781 C424.26416,114.274414 424.272949,114.239258 424.290527,114.195312 C424.308105,114.151367 424.327881,114.103027 424.349854,114.050293 C424.371826,113.997559 424.391602,113.949219 424.40918,113.905273 C424.426758,113.861328 424.435547,113.826172 424.435547,113.799805 C424.435547,113.650391 424.378418,113.518555 424.26416,113.404297 C424.149902,113.290039 424.002686,113.193359 423.82251,113.114258 C423.642334,113.035156 423.437988,112.97583 423.209473,112.936279 C422.980957,112.896729 422.752441,112.876953 422.523926,112.876953 C422.304199,112.876953 422.095459,112.901123 421.897705,112.949463 C421.699951,112.997803 421.526367,113.070312 421.376953,113.166992 C421.227539,113.263672 421.108887,113.388916 421.020996,113.542725 C420.933105,113.696533 420.88916,113.878906 420.88916,114.089844 C420.88916,114.318359 420.930908,114.509521 421.014404,114.66333 C421.0979,114.817139 421.201172,114.946777 421.324219,115.052246 C420.946289,115.816895 420.618896,116.491455 420.342041,117.075928 C420.065186,117.6604 419.821289,118.178955 419.610352,118.631592 C419.399414,119.084229 419.212646,119.486328 419.050049,119.837891 C418.887451,120.189453 418.727051,120.514648 418.568848,120.813477 C418.472168,120.989258 418.408447,121.149658 418.377686,121.294678 C418.346924,121.439697 418.331543,121.560547 418.331543,121.657227 C418.331543,121.894531 418.390869,122.065918 418.509521,122.171387 C418.628174,122.276855 418.788574,122.32959 418.990723,122.32959 Z M438.911133,129.817871 C439.763672,129.817871 440.545898,129.07959 441.257812,127.603027 C441.266602,127.585449 441.32373,127.462402 441.429199,127.233887 C441.534668,127.005371 441.668701,126.706543 441.831299,126.337402 C441.993896,125.968262 442.174072,125.541992 442.371826,125.058594 C442.56958,124.575195 442.769531,124.069824 442.97168,123.54248 C443.244141,123.287598 443.496826,123.065674 443.729736,122.876709 C443.962646,122.687744 444.199951,122.509766 444.44165,122.342773 C444.68335,122.175781 444.94043,122.013184 445.212891,121.85498 C445.485352,121.696777 445.797363,121.520996 446.148926,121.327637 C446.500488,121.134277 446.904785,120.916748 447.361816,120.675049 C447.818848,120.43335 448.35498,120.141113 448.970215,119.79834 C449.400879,119.561035 449.701904,119.314941 449.873291,119.060059 C450.044678,118.805176 450.130371,118.563477 450.130371,118.334961 C450.130371,118.080078 450.046875,117.869141 449.879883,117.702148 C449.712891,117.535156 449.519531,117.45166 449.299805,117.45166 C449.24707,117.45166 449.03833,117.526367 448.673584,117.675781 C448.308838,117.825195 447.873779,118.020752 447.368408,118.262451 C446.863037,118.50415 446.335693,118.776611 445.786377,119.079834 C445.237061,119.383057 444.751465,119.692871 444.32959,120.009277 L444.32959,120.009277 L447.282715,113.852539 C447.32666,113.74707 447.348633,113.632812 447.348633,113.509766 C447.348633,113.360352 447.309082,113.217529 447.22998,113.081299 C447.150879,112.945068 447.019043,112.876953 446.834473,112.876953 C446.729004,112.876953 446.625732,112.881348 446.524658,112.890137 C446.423584,112.898926 446.311523,112.92749 446.188477,112.97583 C446.06543,113.02417 445.918213,113.098877 445.746826,113.199951 C445.575439,113.301025 445.366699,113.448242 445.120605,113.641602 L445.120605,113.641602 L439.675781,118.994141 C439.543945,119.117188 439.40332,119.227051 439.253906,119.32373 C439.104492,119.42041 438.981445,119.46875 438.884766,119.46875 C438.779297,119.46875 438.726562,119.402832 438.726562,119.270996 C438.726562,119.121582 438.788086,118.919434 438.911133,118.664551 L438.911133,118.664551 L441.32373,113.641602 C441.358887,113.5625 441.376465,113.470215 441.376465,113.364746 C441.376465,113.153809 441.281982,112.984619 441.093018,112.857178 C440.904053,112.729736 440.67334,112.666016 440.400879,112.666016 C440.137207,112.666016 439.864746,112.74292 439.583496,112.896729 C439.302246,113.050537 439.07373,113.298828 438.897949,113.641602 C438.643066,114.283203 438.412354,114.843506 438.205811,115.32251 C437.999268,115.801514 437.810303,116.223389 437.638916,116.588135 C437.467529,116.952881 437.309326,117.280273 437.164307,117.570312 C437.019287,117.860352 436.880859,118.130615 436.749023,118.381104 C436.617188,118.631592 436.489746,118.88208 436.366699,119.132568 C436.243652,119.383057 436.120605,119.657715 435.997559,119.956543 C435.786621,120.510254 435.681152,121.006836 435.681152,121.446289 C435.681152,121.762695 435.786621,121.989014 435.997559,122.125244 C436.208496,122.261475 436.463379,122.32959 436.762207,122.32959 C437.693848,122.32959 438.695801,121.916504 439.768066,121.090332 C440.840332,120.26416 442.035645,119.068848 443.354004,117.504395 L443.354004,117.504395 L440.717285,122.84375 C440.137207,123.573242 439.656006,124.208252 439.273682,124.748779 C438.891357,125.289307 438.58374,125.779297 438.35083,126.21875 C438.11792,126.658203 437.955322,127.060303 437.863037,127.425049 C437.770752,127.789795 437.724609,128.156738 437.724609,128.525879 C437.724609,128.921387 437.834473,129.235596 438.054199,129.468506 C438.273926,129.701416 438.55957,129.817871 438.911133,129.817871 Z M450.89502,122.32959 C451.54541,122.32959 452.158447,122.248291 452.734131,122.085693 C453.309814,121.923096 453.845947,121.696777 454.342529,121.406738 C454.839111,121.116699 455.289551,120.769531 455.693848,120.365234 C456.098145,119.960938 456.458496,119.512695 456.774902,119.020508 C456.994629,119.178711 457.212158,119.292969 457.42749,119.363281 C457.642822,119.433594 457.864746,119.46875 458.093262,119.46875 C458.427246,119.46875 458.76123,119.376465 459.095215,119.191895 C459.429199,119.007324 459.75,118.783203 460.057617,118.519531 C460.365234,118.255859 460.655273,117.974609 460.927734,117.675781 C461.200195,117.376953 461.441895,117.113281 461.652832,116.884766 C462.021973,116.55957 462.274658,116.247559 462.410889,115.94873 C462.547119,115.649902 462.615234,115.38623 462.615234,115.157715 C462.615234,114.929199 462.566895,114.751221 462.470215,114.623779 C462.373535,114.496338 462.263672,114.432617 462.140625,114.432617 C462.052734,114.432617 461.978027,114.463379 461.916504,114.524902 C461.802246,114.656738 461.659424,114.817139 461.488037,115.006104 C461.31665,115.195068 461.125488,115.39502 460.914551,115.605957 C460.703613,115.816895 460.479492,116.027832 460.242188,116.23877 C460.004883,116.449707 459.767578,116.638672 459.530273,116.805664 C459.292969,116.972656 459.062256,117.108887 458.838135,117.214355 C458.614014,117.319824 458.409668,117.372559 458.225098,117.372559 C458.093262,117.372559 457.970215,117.350586 457.855957,117.306641 C457.741699,117.262695 457.640625,117.187988 457.552734,117.08252 C457.693359,116.713379 457.798828,116.359619 457.869141,116.02124 C457.939453,115.682861 457.974609,115.381836 457.974609,115.118164 C457.974609,114.608398 457.866943,114.179932 457.651611,113.832764 C457.436279,113.485596 457.166016,113.206543 456.84082,112.995605 C456.515625,112.784668 456.161865,112.635254 455.779541,112.547363 C455.397217,112.459473 455.039062,112.415527 454.705078,112.415527 C453.931641,112.415527 453.228516,112.540771 452.595703,112.79126 C451.962891,113.041748 451.400391,113.371338 450.908203,113.780029 C450.416016,114.188721 449.991943,114.650146 449.635986,115.164307 C449.280029,115.678467 448.985596,116.197021 448.752686,116.719971 C448.519775,117.24292 448.346191,117.750488 448.231934,118.242676 C448.117676,118.734863 448.060547,119.156738 448.060547,119.508301 C448.060547,120.026855 448.161621,120.466309 448.36377,120.82666 C448.565918,121.187012 448.814209,121.479248 449.108643,121.703369 C449.403076,121.92749 449.712891,122.087891 450.038086,122.18457 C450.363281,122.28125 450.648926,122.32959 450.89502,122.32959 Z M452.041992,120.022461 C451.77832,120.022461 451.567383,119.965332 451.40918,119.851074 C451.250977,119.736816 451.130127,119.593994 451.046631,119.422607 C450.963135,119.251221 450.908203,119.06665 450.881836,118.868896 C450.855469,118.671143 450.842285,118.48877 450.842285,118.321777 C450.842285,117.873535 450.930176,117.436279 451.105957,117.01001 C451.281738,116.58374 451.516846,116.201416 451.811279,115.863037 C452.105713,115.524658 452.444092,115.252197 452.826416,115.045654 C453.20874,114.839111 453.606445,114.73584 454.019531,114.73584 C454.291992,114.73584 454.507324,114.786377 454.665527,114.887451 C454.82373,114.988525 454.94458,115.118164 455.028076,115.276367 C455.111572,115.43457 455.164307,115.608154 455.186279,115.797119 C455.208252,115.986084 455.219238,116.168457 455.219238,116.344238 C455.219238,116.79248 455.131348,117.236328 454.955566,117.675781 C454.779785,118.115234 454.54248,118.508545 454.243652,118.855713 C453.944824,119.202881 453.604248,119.484131 453.221924,119.699463 C452.8396,119.914795 452.446289,120.022461 452.041992,120.022461 Z M468.218262,122.32959 C468.640137,122.32959 469.114746,122.230713 469.64209,122.032959 C470.169434,121.835205 470.705566,121.57373 471.250488,121.248535 C471.79541,120.92334 472.324951,120.552002 472.839111,120.134521 C473.353271,119.717041 473.803711,119.288574 474.19043,118.849121 L474.19043,118.849121 L474.058594,117.056152 C473.71582,117.504395 473.32251,117.921875 472.878662,118.308594 C472.434814,118.695312 471.990967,119.031494 471.547119,119.317139 C471.103271,119.602783 470.679199,119.824707 470.274902,119.98291 C469.870605,120.141113 469.532227,120.220215 469.259766,120.220215 C468.873047,120.220215 468.679688,120.062012 468.679688,119.745605 C468.679688,119.402832 468.739014,119.031494 468.857666,118.631592 C468.976318,118.231689 469.125732,117.822998 469.305908,117.405518 C469.486084,116.988037 469.681641,116.577148 469.892578,116.172852 C470.103516,115.768555 470.299072,115.388428 470.479248,115.032471 C470.659424,114.676514 470.808838,114.360107 470.92749,114.083252 C471.046143,113.806396 471.105469,113.588867 471.105469,113.430664 C471.105469,113.149414 471.013184,112.907715 470.828613,112.705566 C470.644043,112.503418 470.393555,112.402344 470.077148,112.402344 C469.787109,112.402344 469.54541,112.499023 469.352051,112.692383 C469.158691,112.885742 468.987305,113.127441 468.837891,113.41748 C468.688477,113.70752 468.550049,114.023926 468.422607,114.366699 C468.295166,114.709473 468.147949,115.030273 467.980957,115.329102 C467.743652,115.777344 467.447021,116.271729 467.091064,116.812256 C466.735107,117.352783 466.337402,117.858154 465.897949,118.328369 C465.458496,118.798584 464.979492,119.191895 464.460938,119.508301 C463.942383,119.824707 463.397461,119.98291 462.826172,119.98291 C462.624023,119.98291 462.479004,119.916992 462.391113,119.785156 C462.303223,119.65332 462.259277,119.508301 462.259277,119.350098 C462.276855,118.972168 462.351562,118.583252 462.483398,118.18335 C462.615234,117.783447 462.773438,117.390137 462.958008,117.003418 C463.142578,116.616699 463.342529,116.243164 463.557861,115.882812 C463.773193,115.522461 463.977539,115.186279 464.170898,114.874268 C464.364258,114.562256 464.533447,114.2854 464.678467,114.043701 C464.823486,113.802002 464.917969,113.606445 464.961914,113.457031 C464.988281,113.37793 465.001465,113.294434 465.001465,113.206543 C465.001465,113.074707 464.966309,112.958252 464.895996,112.857178 C464.825684,112.756104 464.733398,112.672607 464.619141,112.606689 C464.504883,112.540771 464.381836,112.492432 464.25,112.46167 C464.118164,112.430908 463.990723,112.415527 463.867676,112.415527 C463.586426,112.415527 463.324951,112.488037 463.083252,112.633057 C462.841553,112.778076 462.628418,113.017578 462.443848,113.351562 C461.723145,114.617188 461.165039,115.693848 460.769531,116.581543 C460.374023,117.469238 460.081787,118.192139 459.892822,118.750244 C459.703857,119.30835 459.591797,119.717041 459.556641,119.976318 C459.521484,120.235596 459.503906,120.369629 459.503906,120.378418 C459.503906,120.756348 459.56543,121.070557 459.688477,121.321045 C459.811523,121.571533 459.974121,121.771484 460.17627,121.920898 C460.378418,122.070312 460.613525,122.175781 460.881592,122.237305 C461.149658,122.298828 461.428711,122.32959 461.71875,122.32959 C462.360352,122.32959 462.953613,122.239502 463.498535,122.059326 C464.043457,121.87915 464.535645,121.644043 464.975098,121.354004 C465.414551,121.063965 465.805664,120.743164 466.148438,120.391602 C466.491211,120.040039 466.776855,119.692871 467.005371,119.350098 C466.864746,119.88623 466.794434,120.356445 466.794434,120.760742 C466.794434,121.332031 466.92627,121.736328 467.189941,121.973633 C467.453613,122.210938 467.796387,122.32959 468.218262,122.32959 Z"/>
  </g>
</svg>
